<?xml version="1.0" encoding="UTF-8" standalone="no"?>
<!DOCTYPE svg PUBLIC "-//W3C//DTD SVG 1.1//EN"
 "http://www.w3.org/Graphics/SVG/1.1/DTD/svg11.dtd">
<!-- Generated by graphviz version 2.38.0 (20140413.2041)
 -->
<!-- Title: G Pages: 1 -->
<svg
 viewBox="0.00 0.00 604.56 116.00" xmlns="http://www.w3.org/2000/svg" xmlns:xlink="http://www.w3.org/1999/xlink">
<g id="graph0" class="graph" transform="scale(1 1) rotate(0) translate(4 112)">
<title>G</title>
<polygon fill="white" stroke="none" points="-4,4 -4,-112 600.56,-112 600.56,4 -4,4"/>
<!-- node0 -->
<g id="node1" class="node"><title>node0</title>
<polygon fill="none" stroke="black" points="129.475,-31.5 129.475,-75.5 194.092,-75.5 194.092,-31.5 129.475,-31.5"/>
<text text-anchor="middle" x="161.783" y="-60.3" font-family="Times,serif" font-size="14.00">This</text>
<polyline fill="none" stroke="black" points="129.475,-53.5 194.092,-53.5 "/>
<text text-anchor="middle" x="161.783" y="-38.3" font-family="Times,serif" font-size="14.00">Count: 3</text>
</g>
<!-- node1 -->
<g id="node2" class="node"><title>node1</title>
<polygon fill="none" stroke="black" points="230.092,-31.5 230.092,-75.5 294.709,-75.5 294.709,-31.5 230.092,-31.5"/>
<text text-anchor="middle" x="262.4" y="-60.3" font-family="Times,serif" font-size="14.00">is</text>
<polyline fill="none" stroke="black" points="230.092,-53.5 294.709,-53.5 "/>
<text text-anchor="middle" x="262.4" y="-38.3" font-family="Times,serif" font-size="14.00">Count: 3</text>
</g>
<!-- node0&#45;&gt;node1 -->
<g id="edge2" class="edge"><title>node0:f0&#45;&gt;node1:f0</title>
<path fill="none" stroke="black" d="M194.092,-64.5C206.092,-64.5 211.342,-64.5 219.967,-64.5"/>
<polygon fill="black" stroke="black" points="220.092,-68.0001 230.092,-64.5 220.092,-61.0001 220.092,-68.0001"/>
</g>
<!-- node2 -->
<g id="node3" class="node"><title>node2</title>
<polygon fill="none" stroke="black" points="330.709,-31.5 330.709,-75.5 395.326,-75.5 395.326,-31.5 330.709,-31.5"/>
<text text-anchor="middle" x="363.017" y="-60.3" font-family="Times,serif" font-size="14.00">a</text>
<polyline fill="none" stroke="black" points="330.709,-53.5 395.326,-53.5 "/>
<text text-anchor="middle" x="363.017" y="-38.3" font-family="Times,serif" font-size="14.00">Count: 3</text>
</g>
<!-- node1&#45;&gt;node2 -->
<g id="edge3" class="edge"><title>node1:f0&#45;&gt;node2:f0</title>
<path fill="none" stroke="black" d="M294.709,-64.5C306.709,-64.5 311.959,-64.5 320.584,-64.5"/>
<polygon fill="black" stroke="black" points="320.709,-68.0001 330.709,-64.5 320.709,-61.0001 320.709,-68.0001"/>
</g>
<!-- node3 -->
<g id="node4" class="node"><title>node3</title>
<polygon fill="none" stroke="black" points="431.326,-63.5 431.326,-107.5 495.943,-107.5 495.943,-63.5 431.326,-63.5"/>
<text text-anchor="middle" x="463.635" y="-92.3" font-family="Times,serif" font-size="14.00">sentence</text>
<polyline fill="none" stroke="black" points="431.326,-85.5 495.943,-85.5 "/>
<text text-anchor="middle" x="463.635" y="-70.3" font-family="Times,serif" font-size="14.00">Count: 2</text>
</g>
<!-- node2&#45;&gt;node3 -->
<g id="edge4" class="edge"><title>node2:f0&#45;&gt;node3:f0</title>
<path fill="none" stroke="black" d="M395.326,-64.5C412.552,-64.5 411.504,-85.2207 421.592,-93.3147"/>
<polygon fill="black" stroke="black" points="420.733,-96.7164 431.326,-96.5 422.91,-90.0635 420.733,-96.7164"/>
</g>
<!-- node4 -->
<g id="node5" class="node"><title>node4</title>
<polygon fill="none" stroke="black" points="431.326,-0.5 431.326,-44.5 495.943,-44.5 495.943,-0.5 431.326,-0.5"/>
<text text-anchor="middle" x="463.635" y="-29.3" font-family="Times,serif" font-size="14.00">word</text>
<polyline fill="none" stroke="black" points="431.326,-22.5 495.943,-22.5 "/>
<text text-anchor="middle" x="463.635" y="-7.3" font-family="Times,serif" font-size="14.00">Count: 1</text>
</g>
<!-- node2&#45;&gt;node4 -->
<g id="edge5" class="edge"><title>node2:f0&#45;&gt;node4:f0</title>
<path fill="none" stroke="black" d="M395.326,-64.5C412.317,-64.5 411.602,-44.4268 421.676,-36.5857"/>
<polygon fill="black" stroke="black" points="422.867,-39.8795 431.326,-33.5 420.735,-33.2121 422.867,-39.8795"/>
</g>
<!-- node6 -->
<g id="node7" class="node"><title>node6</title>
<polygon fill="none" stroke="black" points="531.943,-63.5 531.943,-107.5 596.56,-107.5 596.56,-63.5 531.943,-63.5"/>
<text text-anchor="middle" x="564.252" y="-92.3" font-family="Times,serif" font-size="14.00">too</text>
<polyline fill="none" stroke="black" points="531.943,-85.5 596.56,-85.5 "/>
<text text-anchor="middle" x="564.252" y="-70.3" font-family="Times,serif" font-size="14.00">Count: 1</text>
</g>
<!-- node3&#45;&gt;node6 -->
<g id="edge7" class="edge"><title>node3:f0&#45;&gt;node6:f0</title>
<path fill="none" stroke="black" d="M495.943,-96.5C507.943,-96.5 513.193,-96.5 521.818,-96.5"/>
<polygon fill="black" stroke="black" points="521.943,-100 531.943,-96.5 521.943,-93.0001 521.943,-100"/>
</g>
<!-- node5 -->
<g id="node6" class="node"><title>node5</title>
<polygon fill="none" stroke="black" points="531.943,-0.5 531.943,-44.5 596.56,-44.5 596.56,-0.5 531.943,-0.5"/>
<text text-anchor="middle" x="564.252" y="-29.3" font-family="Times,serif" font-size="14.00">too</text>
<polyline fill="none" stroke="black" points="531.943,-22.5 596.56,-22.5 "/>
<text text-anchor="middle" x="564.252" y="-7.3" font-family="Times,serif" font-size="14.00">Count: 1</text>
</g>
<!-- node4&#45;&gt;node5 -->
<g id="edge6" class="edge"><title>node4:f0&#45;&gt;node5:f0</title>
<path fill="none" stroke="black" d="M495.943,-33.5C507.943,-33.5 513.193,-33.5 521.818,-33.5"/>
<polygon fill="black" stroke="black" points="521.943,-37.0001 531.943,-33.5 521.943,-30.0001 521.943,-37.0001"/>
</g>
<!-- RootWord -->
<g id="node8" class="node"><title>RootWord</title>
<ellipse fill="none" stroke="black" cx="46.7373" cy="-64.5" rx="46.9757" ry="18"/>
<text text-anchor="middle" x="46.7373" y="-60.3" font-family="Times,serif" font-size="14.00">RootWord</text>
</g>
<!-- RootWord&#45;&gt;node0 -->
<g id="edge1" class="edge"><title>RootWord&#45;&gt;node0:f0</title>
<path fill="none" stroke="black" d="M93.5613,-64.5C101.886,-64.5 110.644,-64.5 119.193,-64.5"/>
<polygon fill="black" stroke="black" points="119.475,-68.0001 129.475,-64.5 119.474,-61.0001 119.475,-68.0001"/>
</g>
</g>
</svg>
