<?xml version="1.0" encoding="UTF-8" standalone="no"?>
<!DOCTYPE svg PUBLIC "-//W3C//DTD SVG 1.1//EN"
 "http://www.w3.org/Graphics/SVG/1.1/DTD/svg11.dtd">
<!-- Generated by graphviz version 2.38.0 (20140413.2041)
 -->
<!-- Title: G Pages: 1 -->
<svg
 viewBox="0.00 0.00 526.10 98.00" xmlns="http://www.w3.org/2000/svg" xmlns:xlink="http://www.w3.org/1999/xlink">
<g id="graph0" class="graph" transform="scale(1 1) rotate(0) translate(4 94)">
<title>G</title>
<polygon fill="white" stroke="none" points="-4,4 -4,-94 522.099,-94 522.099,4 -4,4"/>
<!-- This -->
<g id="node1" class="node"><title>This</title>
<ellipse fill="none" stroke="black" cx="27" cy="-46" rx="27" ry="18"/>
<text text-anchor="middle" x="27" y="-41.8" font-family="Times,serif" font-size="14.00">This</text>
</g>
<!-- is -->
<g id="node2" class="node"><title>is</title>
<ellipse fill="none" stroke="black" cx="134.5" cy="-46" rx="27" ry="18"/>
<text text-anchor="middle" x="134.5" y="-41.8" font-family="Times,serif" font-size="14.00">is</text>
</g>
<!-- This&#45;&gt;is -->
<g id="edge1" class="edge"><title>This&#45;&gt;is</title>
<path fill="none" stroke="black" d="M54.0787,-46C67.0127,-46 82.8499,-46 96.9696,-46"/>
<polygon fill="black" stroke="black" points="97.3557,-49.5001 107.356,-46 97.3557,-42.5001 97.3557,-49.5001"/>
<text text-anchor="middle" x="80.75" y="-48.8" font-family="Times,serif" font-size="14.00">1.0</text>
</g>
<!-- a -->
<g id="node3" class="node"><title>a</title>
<ellipse fill="none" stroke="black" cx="242" cy="-46" rx="27" ry="18"/>
<text text-anchor="middle" x="242" y="-41.8" font-family="Times,serif" font-size="14.00">a</text>
</g>
<!-- is&#45;&gt;a -->
<g id="edge2" class="edge"><title>is&#45;&gt;a</title>
<path fill="none" stroke="black" d="M161.579,-46C174.513,-46 190.35,-46 204.47,-46"/>
<polygon fill="black" stroke="black" points="204.856,-49.5001 214.856,-46 204.856,-42.5001 204.856,-49.5001"/>
<text text-anchor="middle" x="188.25" y="-48.8" font-family="Times,serif" font-size="14.00">1.0</text>
</g>
<!-- sentence -->
<g id="node4" class="node"><title>sentence</title>
<ellipse fill="none" stroke="black" cx="370.049" cy="-72" rx="40.5989" ry="18"/>
<text text-anchor="middle" x="370.049" y="-67.8" font-family="Times,serif" font-size="14.00">sentence</text>
</g>
<!-- a&#45;&gt;sentence -->
<g id="edge3" class="edge"><title>a&#45;&gt;sentence</title>
<path fill="none" stroke="black" d="M267.903,-51.1368C283.522,-54.3584 304.143,-58.612 322.691,-62.4376"/>
<polygon fill="black" stroke="black" points="322.235,-65.9173 332.736,-64.5097 323.649,-59.0616 322.235,-65.9173"/>
<text text-anchor="middle" x="299.25" y="-61.8" font-family="Times,serif" font-size="14.00">0.66</text>
</g>
<!-- word -->
<g id="node5" class="node"><title>word</title>
<ellipse fill="none" stroke="black" cx="370.049" cy="-18" rx="28.0651" ry="18"/>
<text text-anchor="middle" x="370.049" y="-13.8" font-family="Times,serif" font-size="14.00">word</text>
</g>
<!-- a&#45;&gt;word -->
<g id="edge4" class="edge"><title>a&#45;&gt;word</title>
<path fill="none" stroke="black" d="M267.903,-40.4681C286.524,-36.3318 312.256,-30.6158 333.106,-25.9844"/>
<polygon fill="black" stroke="black" points="333.893,-29.3949 342.896,-23.8096 332.375,-22.5614 333.893,-29.3949"/>
<text text-anchor="middle" x="299.25" y="-38.8" font-family="Times,serif" font-size="14.00">0.33</text>
</g>
<!-- too2 -->
<g id="node7" class="node"><title>too2</title>
<ellipse fill="none" stroke="black" cx="491.099" cy="-72" rx="27" ry="18"/>
<text text-anchor="middle" x="491.099" y="-67.8" font-family="Times,serif" font-size="14.00">too</text>
</g>
<!-- sentence&#45;&gt;too2 -->
<g id="edge6" class="edge"><title>sentence&#45;&gt;too2</title>
<path fill="none" stroke="black" d="M410.691,-72C424.461,-72 439.835,-72 453.36,-72"/>
<polygon fill="black" stroke="black" points="453.745,-75.5001 463.745,-72 453.745,-68.5001 453.745,-75.5001"/>
<text text-anchor="middle" x="437.349" y="-74.8" font-family="Times,serif" font-size="14.00">0.5</text>
</g>
<!-- too1 -->
<g id="node6" class="node"><title>too1</title>
<ellipse fill="none" stroke="black" cx="491.099" cy="-18" rx="27" ry="18"/>
<text text-anchor="middle" x="491.099" y="-13.8" font-family="Times,serif" font-size="14.00">too</text>
</g>
<!-- word&#45;&gt;too1 -->
<g id="edge5" class="edge"><title>word&#45;&gt;too1</title>
<path fill="none" stroke="black" d="M398.362,-18C414.774,-18 435.861,-18 453.679,-18"/>
<polygon fill="black" stroke="black" points="453.732,-21.5001 463.732,-18 453.732,-14.5001 453.732,-21.5001"/>
<text text-anchor="middle" x="437.349" y="-20.8" font-family="Times,serif" font-size="14.00">1.0</text>
</g>
</g>
</svg>
